<svg width="194" height="124" viewBox="0 0 194 124" fill="none" xmlns="http://www.w3.org/2000/svg">
<g clip-path="url(#clip0_2600_26981)">
<path d="M92.6559 90.457L40.1237 34.8907C39.8585 34.609 39.7156 34.2337 39.7265 33.847C39.7373 33.4602 39.9009 33.0935 40.1814 32.8271L74.6677 0.231251C74.807 0.0995089 74.9708 -0.0035048 75.1499 -0.0719064C75.329 -0.140308 75.5198 -0.172757 75.7115 -0.167399C75.9031 -0.162041 76.0918 -0.118982 76.2668 -0.0406807C76.4417 0.0376208 76.5996 0.14963 76.7313 0.288948L129.26 55.8587C129.525 56.1404 129.668 56.5157 129.657 56.9024C129.646 57.2892 129.483 57.6559 129.202 57.9223L94.7228 90.5046C94.5844 90.6379 94.4209 90.7425 94.2418 90.8123C94.0627 90.8821 93.8716 90.9158 93.6794 90.9113C93.4873 90.9069 93.2979 90.8645 93.1222 90.7865C92.9466 90.7086 92.7881 90.5966 92.6559 90.457Z" fill="#EDEDED"/>
<g opacity="0.3">
<path d="M92.6559 90.457L40.1237 34.8907C39.8585 34.609 39.7156 34.2337 39.7265 33.847C39.7373 33.4602 39.9009 33.0935 40.1814 32.8271L74.6677 0.231251C74.807 0.0995089 74.9708 -0.0035048 75.1499 -0.0719064C75.329 -0.140308 75.5198 -0.172757 75.7115 -0.167399C75.9031 -0.162041 76.0918 -0.118982 76.2668 -0.0406807C76.4417 0.0376208 76.5996 0.14963 76.7313 0.288948L129.26 55.8587C129.525 56.1404 129.668 56.5157 129.657 56.9024C129.646 57.2892 129.483 57.6559 129.202 57.9223L94.7228 90.5046C94.5844 90.6379 94.4209 90.7425 94.2418 90.8123C94.0627 90.8821 93.8716 90.9158 93.6794 90.9113C93.4873 90.9069 93.2979 90.8645 93.1222 90.7865C92.9466 90.7086 92.7881 90.5966 92.6559 90.457Z" fill="#0C0C0C"/>
</g>
<path d="M128.873 55.4517L77.108 0.696498C76.9261 0.503365 76.708 0.34802 76.466 0.239367C76.224 0.130713 75.9629 0.0708876 75.6977 0.0633205C75.4326 0.0557533 75.1685 0.100591 74.9207 0.195266C74.6729 0.289942 74.4462 0.432592 74.2537 0.615041L64.4586 9.87724C64.3617 9.96774 64.2887 10.0808 64.2461 10.2063C64.2035 10.3319 64.1925 10.466 64.2142 10.5968C65.1951 16.0747 69.1118 20.9722 73.7819 24.2168C79.4227 28.1369 86.1089 30.2038 92.4488 32.8206C98.7888 35.4374 105.18 38.8857 108.991 44.6045C112.585 50.0044 113.434 56.7007 115.263 62.9321C115.761 64.625 116.382 66.279 117.123 67.8805C117.177 67.9968 117.258 68.0987 117.359 68.1777C117.46 68.2568 117.578 68.3108 117.704 68.3353C117.83 68.3598 117.96 68.3541 118.083 68.3187C118.206 68.2833 118.319 68.2192 118.413 68.1317L128.795 58.3163C128.989 58.134 129.146 57.915 129.255 57.672C129.364 57.4289 129.424 57.1666 129.432 56.9003C129.439 56.6339 129.393 56.3687 129.297 56.1201C129.202 55.8714 129.057 55.6443 128.873 55.4517Z" fill="#EDEDED"/>
<path d="M76.3444 16.6314C75.876 17.076 75.2515 16.9708 74.5795 16.2479L73.2559 14.8462L75.9711 12.2871L77.22 13.6108C77.8615 14.2896 77.8988 14.9039 77.4882 15.3078C77.3676 15.4273 77.2154 15.5099 77.0494 15.546C76.8835 15.5821 76.7108 15.5701 76.5514 15.5114C76.6471 15.6944 76.6788 15.9041 76.6412 16.1071C76.6037 16.3102 76.4992 16.4948 76.3444 16.6314ZM76.0797 13.3562L75.4416 13.9603L76.0254 14.595C76.3138 14.9005 76.5786 14.965 76.7924 14.7647C77.0062 14.5645 76.9519 14.2997 76.6634 13.9943L76.0797 13.3562ZM75.8115 15.939C76.0389 15.7252 75.9846 15.4469 75.6758 15.1211L74.997 14.3914L74.3182 15.0227L74.997 15.7558C75.316 16.0816 75.5807 16.1597 75.8115 15.9526V15.939Z" fill="white"/>
<path d="M78.3197 19.0412L77.1284 17.782L76.3206 18.0909L75.7165 17.4494L79.5653 16.0918L80.149 16.7129L78.5878 20.4836L77.9633 19.8252L78.3197 19.0412ZM78.6082 18.3929L79.2395 16.9844L77.797 17.5342L78.6082 18.3929Z" fill="white"/>
<path d="M83.9062 20.7045L81.191 23.2636L80.7124 22.7409L81.0824 19.839L79.4363 21.3833L78.8525 20.7622L81.5677 18.2031L82.0599 18.7224L81.6865 21.6209L83.3326 20.0664L83.9062 20.7045Z" fill="white"/>
<path d="M83.801 23.8702H83.078L82.3992 24.5185L81.7951 23.8906L84.5103 21.3281L85.0975 21.9526L83.8315 23.1473H86.2311L86.8895 23.8261L84.6223 23.8465L84.249 26.4734L83.5702 25.7437L83.801 23.8702Z" fill="white"/>
<path d="M64.6011 26.7719L64.1463 26.2729L63.4675 26.8906L63.2266 26.6361L63.8816 26.0184L62.5546 24.6167L62.7378 24.4402L65.6329 24.1992L65.901 24.4843L63.0942 24.7321L64.1124 25.8114L64.686 25.2649L64.9202 25.5161L64.3466 26.0591L64.815 26.5546L64.6011 26.7719Z" fill="white"/>
<path d="M66.3898 28.5402C65.9723 28.9305 65.3716 28.9339 64.8014 28.3331C64.4804 28.0149 64.2924 27.5867 64.2753 27.135L64.5944 27.0672C64.5987 27.459 64.7572 27.8333 65.0356 28.1091C65.4259 28.5232 65.8298 28.5673 66.1386 28.2754C66.4475 27.9835 66.4339 27.5966 65.9995 27.1384L65.8298 26.9619L66.0198 26.7821L67.5336 26.6565L66.3321 25.3837L66.5595 25.1699L68.0698 26.7685L67.8899 26.9382L66.3389 27.0706C66.814 27.6306 66.7869 28.1702 66.3898 28.5402Z" fill="white"/>
<path d="M68.3074 30.5455C67.8832 30.946 67.2892 30.963 66.7021 30.3554C66.3808 30.0391 66.1937 29.6113 66.1794 29.1607L66.4984 29.0929C66.5053 29.4758 66.6612 29.8411 66.9328 30.1111C67.3299 30.5353 67.7474 30.5659 68.0495 30.2774C68.3515 29.9889 68.3889 29.5986 67.7847 28.9571L67.2824 28.4276L68.64 27.3789L69.9263 28.7365L69.6989 28.9503L68.6366 27.8303L67.761 28.4921L68.0631 28.8315C68.7724 29.5511 68.7452 30.1145 68.3074 30.5455Z" fill="white"/>
<path d="M70.3879 32.7118C70.2799 32.8126 70.1521 32.8898 70.0127 32.9384C69.8732 32.9871 69.7251 33.0061 69.5779 32.9943C69.4306 32.9825 69.2875 32.9401 69.1576 32.8698C69.0276 32.7995 68.9138 32.703 68.8233 32.5862C68.1988 31.9244 68.3176 31.1336 69.1016 30.3903C69.9467 29.5927 70.8223 29.6368 71.4604 30.3122C71.6649 30.5088 71.8117 30.7576 71.8846 31.0318L71.5792 31.1234C71.5283 30.8958 71.41 30.6889 71.2398 30.5295C70.7341 29.9932 70.0655 29.9728 69.3901 30.6109C69.3324 30.6652 69.2645 30.7365 69.1966 30.8146C69.4012 30.7552 69.6187 30.7574 69.8221 30.8208C70.0254 30.8841 70.2057 31.0059 70.3404 31.1709C70.8088 31.6631 70.8427 32.2842 70.3879 32.7118ZM70.1435 32.4674C70.4829 32.1586 70.4524 31.7208 70.0892 31.3372C70.0243 31.2507 69.9423 31.1785 69.8483 31.1249C69.7543 31.0714 69.6504 31.0377 69.5429 31.0259C69.4353 31.0141 69.3265 31.0245 69.2232 31.0565C69.1199 31.0884 69.0242 31.1412 68.9421 31.2117C68.6671 31.4696 68.623 31.9414 69.0303 32.369C69.0931 32.4539 69.1733 32.5245 69.2654 32.5762C69.3575 32.6278 69.4596 32.6593 69.5648 32.6687C69.67 32.678 69.776 32.6648 69.8758 32.6301C69.9755 32.5955 70.0668 32.54 70.1435 32.4674Z" fill="white"/>
<path d="M74.7254 38.7879L74.946 37.4575L73.5884 37.6L73.3203 37.3149L74.98 37.1452L75.2209 35.584L75.4925 35.8691L75.2888 37.1215L76.5514 36.9891L76.8127 37.2674L75.2413 37.4235L74.9868 39.0764L74.7254 38.7879Z" fill="white"/>
<path d="M76.5175 40.6844L76.7381 39.3506L75.3805 39.4931L75.1089 39.208L76.7686 39.0417L77.013 37.4805L77.2811 37.7622L77.0809 39.0146L78.34 38.8856L78.6048 39.1639L77.0299 39.32L76.7754 40.9729L76.5175 40.6844Z" fill="white"/>
<path d="M78.3095 42.5789L78.5301 41.2485L77.1725 41.391L76.9044 41.1059L78.5606 40.9396L78.805 39.375L79.0731 39.6601L78.8729 40.9125L80.1354 40.7835L80.3968 41.0584L78.822 41.2145L78.5674 42.8674L78.3095 42.5789Z" fill="white"/>
<path d="M80.0981 44.4617L80.3187 43.1313L78.9611 43.2738L78.693 42.9887L80.3493 42.819L80.5936 41.2578L80.8618 41.5429L80.6615 42.7953L81.9241 42.6629L82.1854 42.9412L80.6106 43.0974L80.3594 44.7502L80.0981 44.4617Z" fill="white"/>
<path d="M86.2921 51.0223L86.5127 49.6918L85.1552 49.8344L84.887 49.5493L86.5433 49.383L86.7877 47.8184L87.0558 48.1035L86.8555 49.3558L88.1181 49.2235L88.3794 49.5018L86.8046 49.6579L86.5501 51.3108L86.2921 51.0223Z" fill="white"/>
<path d="M88.0842 52.9188L88.3048 51.5849L86.9472 51.7275L86.6791 51.4458L88.3353 51.2761L88.5797 49.7148L88.8478 49.9999L88.6476 51.2523L89.9102 51.12L90.1715 51.3983L88.5967 51.5544L88.3421 53.2073L88.0842 52.9188Z" fill="white"/>
<path d="M89.8762 54.8172L90.1002 53.4834L88.7426 53.6259L88.4745 53.3408L90.1308 53.1745L90.3751 51.6133L90.6433 51.895L90.443 53.1474L91.7056 53.0184L91.9669 53.2933L90.3921 53.4494L90.1409 55.1023L89.8762 54.8172Z" fill="white"/>
<path d="M91.6716 56.7098L91.8922 55.3793L90.5346 55.5219L90.2665 55.2368L91.9227 55.0705L92.1671 53.5059L92.4386 53.791L92.235 55.0433L93.4976 54.911L93.7589 55.1893L92.1841 55.3454L91.9329 56.9983L91.6716 56.7098Z" fill="white"/>
<path d="M99.7153 60.2401L97.2309 62.5922L96.9866 62.3342L99.247 60.1994L98.6937 59.6156L98.9211 59.3984L99.7153 60.2401Z" fill="white"/>
<path d="M100.058 64.1476C99.6441 64.5413 99.04 64.5413 98.4698 63.9405C98.1488 63.6224 97.9608 63.1941 97.9437 62.7425L98.2628 62.6746C98.2691 63.067 98.4272 63.4417 98.704 63.7199C99.0943 64.1306 99.5016 64.1781 99.8104 63.8862C100.119 63.5944 100.106 63.2074 99.6679 62.7459L99.5016 62.5694L99.6882 62.3929L101.202 62.2639L100 60.9946L100.228 60.7773L101.738 62.3759L101.558 62.549L100.011 62.6814C100.486 63.2482 100.462 63.7776 100.058 64.1476Z" fill="white"/>
<path d="M102.336 66.6825L101.864 66.1836L101.212 66.8013L100.968 66.5468L101.623 65.9291L100.296 64.5273L100.482 64.3509L103.374 64.1133L103.642 64.395L100.835 64.6427L101.854 65.722L102.427 65.179L102.665 65.4268L102.088 65.9698L102.56 66.4687L102.336 66.6825Z" fill="white"/>
<path d="M103.72 69.0032L103.493 69.217L101.843 67.4725L102.027 67.3028L104.016 67.3775C104.559 67.3978 104.776 67.2926 104.945 67.1331C105.234 66.8582 105.22 66.4882 104.861 66.1149C104.748 65.9811 104.607 65.8744 104.448 65.8027C104.289 65.731 104.115 65.6962 103.941 65.7008V65.3614C104.167 65.3589 104.39 65.4063 104.595 65.5002C104.801 65.5941 104.983 65.7321 105.129 65.9045C105.604 66.4102 105.651 66.9702 105.234 67.3639C104.996 67.5879 104.715 67.7033 104.073 67.7033L102.441 67.6456L103.72 69.0032Z" fill="white"/>
<path d="M55.5426 28.8489C55.6778 28.7363 55.8431 28.6658 56.0179 28.6462C56.1927 28.6266 56.3695 28.6587 56.5263 28.7386C56.683 28.8184 56.813 28.9424 56.8999 29.0954C56.9869 29.2483 57.0271 29.4234 57.0156 29.5989L56.6762 29.5786C56.6861 29.5006 56.6785 29.4215 56.6538 29.3469C56.6292 29.2723 56.5881 29.2042 56.5337 29.1475C56.4864 29.0976 56.4298 29.0575 56.3671 29.0295C56.3043 29.0014 56.2366 28.986 56.1679 28.9841C56.0292 28.9803 55.8946 29.0318 55.7938 29.1272C55.693 29.2226 55.6342 29.3541 55.6304 29.4929C55.6265 29.6317 55.678 29.7662 55.7734 29.8671C55.827 29.9248 55.8931 29.9695 55.9666 29.9977C56.0402 30.026 56.1192 30.037 56.1977 30.03V30.3694C56.0698 30.375 55.9424 30.3517 55.8248 30.3012C55.7073 30.2507 55.6027 30.1742 55.5189 30.0775C55.4359 29.9974 55.3703 29.901 55.3262 29.7944C55.2821 29.6879 55.2606 29.5733 55.2628 29.458C55.265 29.3427 55.291 29.2291 55.3392 29.1242C55.3873 29.0194 55.4566 28.9257 55.5426 28.8489Z" fill="white"/>
<path d="M57.1683 31.2253L56.6456 30.6754L56.3062 30.8112L56.0415 30.5295L57.7385 29.9355L57.993 30.2071L57.3142 31.8599L57.019 31.5647L57.1683 31.2253ZM57.2939 30.9436L57.5688 30.3259L56.9375 30.5668L57.2939 30.9436Z" fill="white"/>
<path d="M58.1187 32.7461L58.2307 32.2031L58.0033 31.9655L57.6639 32.2777L57.4025 32.0028L58.5904 30.8828L59.0758 31.3953C59.3744 31.7109 59.3982 32.0741 59.1301 32.3151C59.0538 32.3947 58.9545 32.4483 58.846 32.4684C58.7376 32.4885 58.6257 32.4741 58.5259 32.4271L58.397 33.0516L58.1187 32.7461ZM58.8382 31.5786L58.6244 31.3546L58.2103 31.7449L58.4241 31.9689C58.5802 32.1352 58.7398 32.1454 58.8687 32.0266C58.9977 31.9078 58.9943 31.7449 58.8382 31.565V31.5786Z" fill="white"/>
<path d="M58.6108 33.0299L58.9061 32.9281C58.9346 33.1191 59.0211 33.2969 59.1538 33.4372C59.3065 33.6001 59.4219 33.6137 59.4932 33.5458C59.7138 33.3354 58.9094 32.7923 59.3507 32.3749C59.5543 32.1848 59.8733 32.1882 60.1924 32.5242C60.3329 32.6654 60.4316 32.8428 60.4775 33.0367L60.189 33.1487C60.1537 32.9932 60.0789 32.8494 59.9718 32.7312C59.8156 32.5683 59.6969 32.5649 59.6324 32.6328C59.4152 32.8398 60.2161 33.3897 59.7817 33.8003C59.5815 33.987 59.259 33.9836 58.9366 33.6442C58.769 33.4767 58.6555 33.2627 58.6108 33.0299Z" fill="white"/>
<path d="M62.2763 34.7658L61.0884 35.8892L60.8304 35.6143L61.3158 35.1527L60.8067 34.613L60.3213 35.0746L60.06 34.7997L61.2479 33.6797L61.5058 33.9512L61.0375 34.3958L61.5466 34.9355L62.0149 34.4909L62.2763 34.7658Z" fill="white"/>
<path d="M61.8792 35.5356C62.0022 35.4049 62.1617 35.3142 62.3369 35.2753C62.5122 35.2363 62.695 35.2509 62.8619 35.3171C63.0287 35.3833 63.1719 35.4981 63.2727 35.6466C63.3735 35.7951 63.4275 35.9704 63.4275 36.1499C63.4275 36.3294 63.3735 36.5048 63.2727 36.6533C63.1719 36.8018 63.0287 36.9166 62.8619 36.9828C62.695 37.049 62.5122 37.0635 62.3369 37.0246C62.1617 36.9856 62.0022 36.8949 61.8792 36.7642C61.796 36.685 61.7298 36.5897 61.6845 36.4841C61.6393 36.3785 61.616 36.2648 61.616 36.1499C61.616 36.035 61.6393 35.9214 61.6845 35.8158C61.7298 35.7102 61.796 35.6149 61.8792 35.5356ZM62.8431 36.5538C62.8956 36.5095 62.9383 36.4549 62.9685 36.3932C62.9988 36.3315 63.0159 36.2643 63.0188 36.1957C63.0216 36.1271 63.0102 36.0586 62.9852 35.9946C62.9602 35.9307 62.9222 35.8726 62.8736 35.8241C62.8042 35.7468 62.7133 35.6919 62.6126 35.6665C62.5118 35.6411 62.4058 35.6463 62.308 35.6814C62.2102 35.7166 62.1251 35.78 62.0636 35.8638C62.002 35.9475 61.9668 36.0476 61.9625 36.1515C61.9582 36.2553 61.9848 36.358 62.0392 36.4466C62.0935 36.5352 62.173 36.6055 62.2675 36.6487C62.362 36.6919 62.4672 36.7059 62.5697 36.689C62.6723 36.6721 62.7674 36.625 62.8431 36.5538Z" fill="white"/>
<path d="M63.8986 36.4824L64.1565 36.7573L63.1926 37.6737L63.756 38.2677L63.532 38.4781L62.7107 37.6092L63.8986 36.4824Z" fill="white"/>
<path d="M64.8659 37.5078L65.375 38.0475C65.4594 38.1229 65.5271 38.215 65.5741 38.318C65.621 38.421 65.646 38.5326 65.6476 38.6458C65.6492 38.759 65.6272 38.8712 65.5832 38.9755C65.5391 39.0797 65.4739 39.1737 65.3917 39.2515C65.3095 39.3292 65.212 39.3891 65.1054 39.4272C64.9989 39.4654 64.8856 39.481 64.7727 39.4731C64.6598 39.4652 64.5497 39.434 64.4495 39.3814C64.3493 39.3288 64.2611 39.2559 64.1905 39.1675L63.6814 38.6278L64.8659 37.5078ZM64.4009 38.9401C64.4408 39.0031 64.494 39.0567 64.5569 39.0969C64.6197 39.1371 64.6907 39.163 64.7646 39.1727C64.8386 39.1825 64.9138 39.1759 64.9849 39.1533C65.0561 39.1308 65.1214 39.0929 65.1762 39.0424C65.2311 38.9918 65.2742 38.9298 65.3024 38.8607C65.3307 38.7917 65.3434 38.7172 65.3397 38.6427C65.336 38.5682 65.316 38.4954 65.281 38.4295C65.246 38.3636 65.197 38.3062 65.1374 38.2613L64.8998 38.0101L64.1667 38.6923L64.4009 38.9401Z" fill="white"/>
<path d="M66.0945 40.7278L65.8739 40.9382L65.0051 40.0185L66.193 38.8984L67.0381 39.7945L66.8209 40.0015L66.2303 39.3804L65.9724 39.6214L66.4916 40.1746L66.2778 40.3748L65.7585 39.825L65.4836 40.0829L66.0945 40.7278Z" fill="white"/>
<path d="M66.7971 41.9238L66.9091 41.3842L66.6817 41.1466L66.3423 41.4589L66.0809 41.184L67.2688 40.0605L67.7542 40.5764C68.0528 40.8921 68.0766 41.2552 67.8085 41.4962C67.7322 41.5758 67.6329 41.6295 67.5245 41.6496C67.4161 41.6697 67.3041 41.6552 67.2043 41.6082L67.0754 42.2327L66.7971 41.9238ZM67.5166 40.7563L67.3028 40.5323L66.8921 40.926L67.1025 41.15C67.262 41.3163 67.4182 41.3265 67.5471 41.2043C67.6761 41.0821 67.6727 40.926 67.5166 40.7563Z" fill="white"/>
<path d="M50.7944 33.0988L51.4257 33.0581C51.3951 33.1722 51.3927 33.2921 51.4188 33.4074C51.4448 33.5227 51.4984 33.6299 51.575 33.7199C51.7753 33.9303 52.0095 33.9235 52.2538 33.686L53.3399 32.6678L52.5796 31.8634L53.0039 31.4629L54.2631 32.7933L52.7799 34.1917C52.2131 34.7279 51.6701 34.7041 51.161 34.1679C51.0212 34.0303 50.9154 33.8621 50.8518 33.6765C50.7881 33.491 50.7685 33.2932 50.7944 33.0988Z" fill="white"/>
<path d="M52.6068 35.0017C52.6905 34.9225 52.8023 34.8798 52.9175 34.883C53.0327 34.8862 53.1419 34.935 53.2211 35.0187C53.3003 35.1024 53.3431 35.2142 53.3399 35.3294C53.3367 35.4446 53.2879 35.5538 53.2042 35.633C53.1627 35.6722 53.1139 35.7029 53.0606 35.7233C53.0073 35.7436 52.9505 35.7533 52.8935 35.7517C52.8365 35.7502 52.7803 35.7374 52.7282 35.7141C52.6761 35.6908 52.6291 35.6575 52.5899 35.616C52.5506 35.5746 52.52 35.5258 52.4996 35.4725C52.4792 35.4192 52.4695 35.3624 52.4711 35.3054C52.4727 35.2483 52.4855 35.1921 52.5088 35.14C52.5321 35.0879 52.5654 35.0409 52.6068 35.0017Z" fill="white"/>
<path d="M58.6956 37.4625L55.7021 38.8744L55.1659 38.3076L56.2384 36.3425L54.202 37.286L53.6691 36.7226L55.2439 33.8105L55.7632 34.357L54.6432 36.3934L56.761 35.4125L57.2226 35.9012L56.0958 37.9546L58.2205 36.9568L58.6956 37.4625Z" fill="white"/>
<path d="M58.9094 37.6898C58.9495 37.6524 58.997 37.6238 59.0487 37.6058C59.1005 37.5878 59.1555 37.5808 59.2101 37.5853C59.2648 37.5898 59.3179 37.6056 59.366 37.6318C59.4142 37.658 59.4563 37.6939 59.4898 37.7373C59.5312 37.772 59.5649 37.8148 59.5889 37.8631C59.6129 37.9115 59.6266 37.9643 59.6291 38.0182C59.6317 38.0721 59.6231 38.1259 59.6037 38.1763C59.5844 38.2267 59.5549 38.2725 59.517 38.3109C59.4769 38.3502 59.429 38.3805 59.3764 38.4001C59.3238 38.4197 59.2677 38.4279 59.2117 38.4244C59.1557 38.4209 59.101 38.4057 59.0513 38.3797C59.0016 38.3537 58.9579 38.3175 58.923 38.2736C58.8818 38.2373 58.8486 38.193 58.8254 38.1432C58.8022 38.0935 58.7896 38.0395 58.7883 37.9847C58.787 37.9298 58.7971 37.8753 58.818 37.8245C58.8388 37.7738 58.87 37.7279 58.9094 37.6898ZM58.4377 38.2498L58.9196 38.7589L57.1615 40.4186L56.683 39.9095L58.4377 38.2498Z" fill="white"/>
<path d="M60.0329 38.6035L60.5148 39.1126L58.0915 41.4069L57.6096 40.8979L60.0329 38.6035Z" fill="white"/>
<path d="M60.9594 39.584L61.4413 40.0931L59.018 42.384L58.5361 41.8749L60.9594 39.584Z" fill="white"/>
<path d="M61.6925 40.6342C61.7334 40.5976 61.7812 40.5698 61.8331 40.5523C61.8851 40.5349 61.94 40.5281 61.9946 40.5326C62.0492 40.537 62.1023 40.5525 62.1508 40.5782C62.1992 40.6038 62.2419 40.639 62.2763 40.6817C62.3171 40.7171 62.3502 40.7606 62.3737 40.8093C62.3971 40.858 62.4103 40.911 62.4125 40.965C62.4148 41.0191 62.4059 41.073 62.3866 41.1235C62.3673 41.1739 62.3378 41.2199 62.3 41.2586C62.2151 41.3262 62.108 41.3597 61.9997 41.3528C61.8914 41.3458 61.7896 41.2989 61.7139 41.2211C61.6382 41.1433 61.5941 41.0402 61.5902 40.9318C61.5862 40.8233 61.6227 40.7172 61.6925 40.6342ZM61.2208 41.1976L61.7027 41.7067L59.948 43.3663L59.4661 42.8572L61.2208 41.1976Z" fill="white"/>
<path d="M62.8635 44.4625L61.8453 45.4094L61.3939 44.9343L61.6145 44.7273C61.4735 44.7483 61.3295 44.7311 61.1976 44.6773C61.0656 44.6236 60.9505 44.5353 60.8644 44.4218C60.4741 44.0111 60.4707 43.5495 60.7762 43.2644C61.0816 42.9794 61.5059 42.9861 62.0116 43.519L62.3951 43.9263C62.6157 43.7192 62.6191 43.4681 62.3578 43.1932C62.1859 43.0142 61.961 42.8952 61.7163 42.8538L61.8996 42.3379C62.2576 42.4259 62.5813 42.6185 62.8295 42.8911C63.3522 43.3968 63.3963 43.9432 62.8635 44.4625ZM61.9369 44.3777L62.1168 44.208L61.7774 43.8686C61.5534 43.6276 61.3939 43.6378 61.2751 43.7464C61.1563 43.855 61.1665 44.0552 61.3362 44.2351C61.41 44.3172 61.508 44.3736 61.616 44.3962C61.724 44.4187 61.8364 44.4063 61.9369 44.3607V44.3777Z" fill="white"/>
<path d="M66.1081 47.855L65.0899 48.8053L64.6113 48.2962L65.5379 47.4205C65.8196 47.1524 65.8298 46.9012 65.6363 46.6976C65.4429 46.494 65.1238 46.4465 64.8082 46.7417L63.9292 47.5767L63.4472 47.0676L64.3738 46.1919C64.6589 45.9204 64.6724 45.676 64.4722 45.4656C64.2719 45.2552 63.9631 45.2178 63.6475 45.5165L62.7888 46.3582L62.3068 45.8491L64.0615 44.1895L64.5231 44.6748L64.3195 44.8683C64.4617 44.8664 64.6026 44.8958 64.7323 44.9545C64.8619 45.0131 64.977 45.0996 65.0695 45.2076C65.1825 45.3153 65.2656 45.4503 65.3108 45.5996C65.356 45.7489 65.3617 45.9074 65.3275 46.0595C65.4933 46.0477 65.6597 46.0739 65.8138 46.1363C65.9679 46.1986 66.1058 46.2955 66.2167 46.4193C66.6002 46.8368 66.641 47.3594 66.1081 47.855Z" fill="white"/>
<path d="M65.5345 48.9489L66.0606 48.7724C66.1237 49.0615 66.2645 49.3279 66.4678 49.5428C66.6884 49.777 66.8344 49.8076 66.9328 49.7159C67.2179 49.4444 65.9146 48.6604 66.624 47.9952C66.9634 47.6829 67.4758 47.761 67.9612 48.2735C68.1869 48.5041 68.3534 48.7859 68.4465 49.0948L67.9239 49.2679C67.8693 49.0309 67.7521 48.8129 67.5845 48.6366C67.3706 48.4092 67.2043 48.3787 67.1127 48.4635C66.814 48.7486 68.1071 49.536 67.4148 50.1877C67.0754 50.4965 66.5697 50.4151 66.0572 49.889C65.8025 49.6276 65.6221 49.3031 65.5345 48.9489Z" fill="white"/>
<path d="M85.8136 68.5754C86.5671 67.8626 87.3884 67.8762 87.9212 68.4362C88.4541 68.9962 88.4202 69.821 87.6633 70.5337C86.9065 71.2464 86.0919 71.2363 85.5556 70.6729C85.0194 70.1095 85.0601 69.2881 85.8136 68.5754ZM87.1712 70.0008C87.6905 69.5121 87.7346 69.1252 87.4834 68.8605C87.2323 68.5957 86.8487 68.6195 86.3295 69.1116C85.8102 69.6037 85.7661 69.9873 86.0138 70.2486C86.2616 70.5099 86.6417 70.493 87.161 70.0008H87.1712Z" fill="white"/>
<path d="M89.2619 73.0757C88.7969 73.5169 88.1419 73.4151 87.6837 72.9297C87.0897 72.2985 87.1135 71.5314 87.85 70.8356C88.6408 70.089 89.547 70.1568 90.1817 70.8356C90.3996 71.0527 90.5545 71.3248 90.6297 71.623L90.0561 71.7927C90.0136 71.5892 89.912 71.4027 89.7642 71.2565C89.6871 71.1637 89.5907 71.0888 89.4818 71.0368C89.3729 70.9849 89.2541 70.9571 89.1334 70.9555C89.0128 70.9539 88.8932 70.9785 88.783 71.0275C88.6728 71.0765 88.5745 71.1489 88.4949 71.2395C88.7799 71.2622 89.0446 71.3963 89.2314 71.6129C89.3314 71.7057 89.4117 71.8178 89.4676 71.9423C89.5235 72.0668 89.5537 72.2013 89.5566 72.3378C89.5594 72.4743 89.5348 72.6099 89.4842 72.7367C89.4336 72.8634 89.358 72.9787 89.2619 73.0757ZM88.7528 72.5869C88.8017 72.5404 88.8402 72.4841 88.8656 72.4216C88.891 72.3591 88.9028 72.2919 88.9003 72.2244C88.8977 72.157 88.8808 72.0909 88.8507 72.0305C88.8206 71.9701 88.778 71.9168 88.7257 71.8742C88.6847 71.8205 88.6332 71.7759 88.5742 71.7429C88.5153 71.71 88.4502 71.6896 88.3831 71.6829C88.3159 71.6762 88.2481 71.6834 88.1838 71.7041C88.1196 71.7247 88.0602 71.7584 88.0095 71.8029C87.9612 71.8512 87.9236 71.9092 87.8992 71.9731C87.8748 72.037 87.8642 72.1053 87.868 72.1735C87.8719 72.2418 87.8901 72.3084 87.9215 72.3691C87.9529 72.4299 87.9968 72.4833 88.0502 72.5258C88.0903 72.5799 88.1415 72.6249 88.2002 72.6577C88.259 72.6905 88.3241 72.7105 88.3912 72.7162C88.4582 72.722 88.5257 72.7135 88.5893 72.6912C88.6528 72.6689 88.7108 72.6334 88.7596 72.5869H88.7528Z" fill="white"/>
<path d="M92.3165 72.2246L92.7475 72.676L88.651 74.5088L88.2233 74.054L92.3165 72.2246Z" fill="white"/>
<path d="M92.011 76.5587L91.58 76.966L89.9407 75.2385L90.2801 74.9161L91.9465 75.0111C92.0597 75.0331 92.1763 75.0303 92.2882 75.0028C92.4002 74.9752 92.5048 74.9236 92.5948 74.8516C92.7747 74.6819 92.7611 74.4579 92.5303 74.2169C92.4474 74.1209 92.342 74.0471 92.2235 74.0021C92.105 73.957 91.9772 73.9422 91.8515 73.959L91.7361 73.3378C91.975 73.3102 92.2171 73.3418 92.4409 73.43C92.6647 73.5182 92.8632 73.6603 93.019 73.8436C93.501 74.356 93.5587 74.9398 93.1446 75.3335C92.924 75.5439 92.6627 75.6729 92.0619 75.6322L91.0709 75.5745L92.011 76.5587Z" fill="white"/>
<path d="M94.2137 78.7882L93.8743 78.4182L93.3958 78.8696L92.907 78.3538L93.389 77.9024L92.2249 76.6703L92.5812 76.3309L95.0486 76.0391L95.5747 76.5923L93.2532 76.8909L93.8336 77.5053L94.2612 77.1014L94.733 77.6003L94.3054 78.0042L94.6448 78.3775L94.2137 78.7882Z" fill="white"/>
<path d="M104.935 50.5196C106.225 48.5375 105.719 45.9037 103.988 44.295C103.462 43.7983 102.852 43.3985 102.186 43.1139C100.533 42.4351 98.3442 42.9272 97.4754 44.4952C96.766 45.7748 97.0511 47.3733 97.55 48.7479C98.0693 50.1904 98.9076 51.6633 100.337 52.2234C101.765 52.7834 103.364 52.2709 104.389 51.2052C104.594 50.996 104.777 50.7662 104.935 50.5196Z" fill="#EDEDED"/>
<path d="M136.415 51.3359H49.6202C46.3511 51.3359 43.701 53.986 43.701 57.2551V116.999C43.701 120.268 46.3511 122.919 49.6202 122.919H136.415C139.684 122.919 142.334 120.268 142.334 116.999V57.2551C142.334 53.986 139.684 51.3359 136.415 51.3359Z" fill="#EDEDED"/>
<path d="M142.334 57.2557C142.334 57.2557 142.334 57.1844 142.334 57.0418C142.327 56.8292 142.307 56.6171 142.273 56.4072C142.154 55.5809 141.857 54.7901 141.404 54.0891C141.072 53.5734 140.664 53.1101 140.196 52.7145C139.623 52.2451 138.968 51.8861 138.264 51.6556C138.074 51.5911 137.874 51.5537 137.674 51.4961C137.474 51.4384 137.26 51.4316 137.046 51.3976L136.391 51.3671H132.732L97.343 51.3942H72.9063H59.2896H50.36C49.7574 51.3701 49.1539 51.4042 48.5578 51.4961C47.3576 51.7164 46.2576 52.3103 45.415 53.193C44.9895 53.6327 44.6376 54.1381 44.373 54.6898C44.1002 55.2412 43.9213 55.8342 43.8436 56.4445C43.785 57.0649 43.7657 57.6884 43.7859 58.3112V67.8788C43.7859 73.0513 43.7859 78.3267 43.7859 83.705V116.966C43.788 118.386 44.304 119.757 45.2385 120.825C46.1603 121.888 47.4385 122.577 48.8327 122.763C49.5279 122.823 50.226 122.842 50.9234 122.821H104.603H132.654H135.919C136.452 122.837 136.985 122.802 137.511 122.716C138.028 122.616 138.529 122.447 139.001 122.213C139.235 122.098 139.461 121.969 139.68 121.826C139.892 121.677 140.096 121.516 140.291 121.344C140.868 120.836 141.339 120.218 141.675 119.525C142.012 118.833 142.207 118.081 142.249 117.312C142.283 113.24 142.249 109.323 142.269 105.589C142.269 90.6559 142.293 78.5597 142.3 70.2037C142.3 66.0257 142.3 62.7845 142.317 60.5818C142.317 59.4855 142.317 58.6472 142.317 58.0804C142.317 57.5136 142.317 57.2285 142.317 57.2285C142.317 57.2285 142.317 57.517 142.317 58.0804C142.317 58.6438 142.317 59.4855 142.317 60.5818C142.317 62.7845 142.317 66.0121 142.334 70.2037C142.334 78.5597 142.334 90.6491 142.361 105.589C142.361 109.323 142.385 113.236 142.361 117.319C142.304 118.366 141.971 119.378 141.397 120.255C141.111 120.695 140.768 121.097 140.379 121.45C140.179 121.626 139.97 121.79 139.751 121.942C139.533 122.087 139.306 122.22 139.072 122.339C138.59 122.58 138.077 122.754 137.548 122.855C137.014 122.945 136.471 122.981 135.929 122.963H132.664H104.613H73.6122H50.9099C50.2044 122.985 49.4984 122.965 48.7954 122.902C47.3589 122.714 46.0414 122.005 45.0926 120.91C44.1345 119.812 43.6042 118.406 43.5992 116.949C43.5992 105.549 43.5992 94.4232 43.5992 83.688V67.8788C43.5992 65.2949 43.5992 62.7381 43.5992 60.2084V58.318C43.5789 57.6872 43.5993 57.0557 43.6603 56.4275C43.7405 55.8005 43.9252 55.1913 44.2067 54.6253C44.478 54.0567 44.8402 53.5363 45.2792 53.0844C45.7138 52.6375 46.2126 52.2577 46.759 51.9576C47.3083 51.666 47.8988 51.46 48.5103 51.3467L48.9685 51.2754L49.4267 51.2517C49.7355 51.2347 50.0376 51.2517 50.3397 51.2517H72.8859H97.3226L132.712 51.2822H136.354L137.015 51.3162C137.229 51.3535 137.443 51.3773 137.647 51.4214C137.85 51.4655 138.051 51.5164 138.241 51.5843C138.95 51.8178 139.609 52.1815 140.185 52.6568C140.657 53.0561 141.065 53.5241 141.397 54.0449C141.848 54.7519 142.14 55.5487 142.252 56.38C142.287 56.591 142.305 56.8043 142.307 57.0181C142.334 57.1844 142.334 57.2557 142.334 57.2557Z" fill="#353535"/>
<path d="M138.879 55.7484C139.552 55.6307 140.241 55.6307 140.915 55.7484C140.241 55.866 139.552 55.866 138.879 55.7484Z" fill="#353535"/>
<path d="M130.57 55.7484C131.952 55.6307 133.342 55.6307 134.724 55.7484C133.342 55.8661 131.952 55.8661 130.57 55.7484Z" fill="#353535"/>
<path d="M122.265 55.7484C123.646 55.6307 125.035 55.6307 126.416 55.7484C125.035 55.8662 123.646 55.8662 122.265 55.7484Z" fill="#353535"/>
<path d="M113.957 55.7484C115.339 55.6307 116.729 55.6307 118.111 55.7484C116.729 55.8661 115.339 55.8661 113.957 55.7484Z" fill="#353535"/>
<path d="M105.651 55.7484C107.033 55.6307 108.421 55.6307 109.802 55.7484C108.421 55.8662 107.033 55.8662 105.651 55.7484Z" fill="#353535"/>
<path d="M97.343 55.7484C98.7253 55.6307 100.115 55.6307 101.497 55.7484C100.115 55.8661 98.7253 55.8661 97.343 55.7484Z" fill="#353535"/>
<path d="M89.0379 55.7484C90.419 55.6307 91.8076 55.6307 93.1888 55.7484C91.8076 55.8662 90.419 55.8662 89.0379 55.7484Z" fill="#353535"/>
<path d="M80.7294 55.7484C82.1117 55.6307 83.5014 55.6307 84.8837 55.7484C83.5014 55.8661 82.1117 55.8661 80.7294 55.7484Z" fill="#353535"/>
<path d="M72.421 55.7484C73.8032 55.6307 75.1929 55.6307 76.5752 55.7484C75.1929 55.8661 73.8032 55.8661 72.421 55.7484Z" fill="#353535"/>
<path d="M64.1158 55.7491C64.8012 55.6625 65.4925 55.633 66.1828 55.6609C66.8764 55.6324 67.5712 55.6619 68.2599 55.7491C67.5714 55.8384 66.8764 55.868 66.1828 55.8374C65.4925 55.8674 64.801 55.8379 64.1158 55.7491Z" fill="#353535"/>
<path d="M55.8074 55.7491C56.4961 55.6619 57.1909 55.6324 57.8845 55.6609C58.5781 55.6324 59.2729 55.6619 59.9616 55.7491C59.2731 55.8384 58.5781 55.868 57.8845 55.8374C57.1909 55.868 56.4959 55.8384 55.8074 55.7491Z" fill="#353535"/>
<path d="M49.6201 57.7848C49.5307 57.1099 49.5012 56.4285 49.5319 55.7484L49.6201 55.6602H50.4109L51.0592 55.6805C51.2602 55.6732 51.4612 55.6937 51.6565 55.7416C51.4616 55.7919 51.2604 55.8136 51.0592 55.8061L50.4109 55.8231H50.0308H49.6201L49.7084 55.7348C49.7378 56.4194 49.7082 57.1053 49.6201 57.7848Z" fill="#353535"/>
<path d="M49.6201 65.3984C49.5308 64.7679 49.5013 64.1304 49.5319 63.4944C49.5014 62.8595 49.5309 62.2231 49.6201 61.5938C49.7073 62.2233 49.7368 62.8595 49.7084 63.4944C49.7369 64.1304 49.7073 64.7677 49.6201 65.3984Z" fill="#353535"/>
<path d="M49.6202 73.0097C49.5025 71.7442 49.5025 70.4706 49.6202 69.2051C49.7378 70.4706 49.7378 71.7442 49.6202 73.0097Z" fill="#353535"/>
<path d="M49.6201 80.6225C49.5024 79.3559 49.5024 78.0811 49.6201 76.8145C49.7378 78.0811 49.7378 79.3559 49.6201 80.6225Z" fill="#353535"/>
<path d="M49.6201 88.2436C49.5024 86.977 49.5024 85.7022 49.6201 84.4355C49.7378 85.7022 49.7378 86.977 49.6201 88.2436Z" fill="#353535"/>
<path d="M49.6202 95.8457C49.5025 94.5802 49.5025 93.3065 49.6202 92.041C49.7378 93.3065 49.7378 94.5802 49.6202 95.8457Z" fill="#353535"/>
<path d="M49.6202 103.457C49.5025 102.192 49.5025 100.918 49.6202 99.6523C49.7378 100.918 49.7378 102.192 49.6202 103.457Z" fill="#353535"/>
<path d="M49.6202 111.07C49.5025 109.805 49.5025 108.531 49.6202 107.266C49.7378 108.531 49.7378 109.805 49.6202 111.07Z" fill="#353535"/>
<path d="M51.6565 116.916C50.9815 117.003 50.3002 117.033 49.6201 117.004C49.4437 116.828 49.5692 116.953 49.5319 116.912V116.509C49.5319 116.376 49.5319 116.251 49.5319 116.125C49.5319 115.901 49.5319 115.687 49.5319 115.477C49.5221 115.277 49.5439 115.076 49.5964 114.883C49.6444 115.077 49.665 115.277 49.6575 115.477C49.6575 115.687 49.6575 115.901 49.6778 116.125C49.6778 116.251 49.6778 116.376 49.6778 116.509C49.6778 116.573 49.6778 116.641 49.6778 116.709V116.912C49.6371 116.875 49.7661 117.004 49.5896 116.828C50.2798 116.795 50.9716 116.825 51.6565 116.916Z" fill="#353535"/>
<path d="M59.8428 116.916C59.1677 117.003 58.4865 117.032 57.8064 117.004C57.1263 117.032 56.4451 117.003 55.77 116.916C56.445 116.827 57.1263 116.798 57.8064 116.828C58.4865 116.798 59.1679 116.827 59.8428 116.916Z" fill="#353535"/>
<path d="M68.0291 116.916C67.354 117.003 66.6728 117.032 65.9928 117.004C65.3127 117.032 64.6315 117.003 63.9564 116.916C64.6313 116.827 65.3127 116.798 65.9928 116.828C66.6728 116.798 67.3542 116.827 68.0291 116.916Z" fill="#353535"/>
<path d="M76.2154 116.914C74.8536 117.032 73.4841 117.032 72.1223 116.914C73.4841 116.797 74.8536 116.797 76.2154 116.914Z" fill="#353535"/>
<path d="M84.4017 116.914C83.0399 117.032 81.6704 117.032 80.3086 116.914C81.6704 116.797 83.0399 116.797 84.4017 116.914Z" fill="#353535"/>
<path d="M92.588 116.914C91.2262 117.032 89.8567 117.032 88.4949 116.914C89.8567 116.797 91.2262 116.797 92.588 116.914Z" fill="#353535"/>
<path d="M100.774 116.914C99.4125 117.032 98.043 117.032 96.6812 116.914C98.043 116.797 99.4125 116.797 100.774 116.914Z" fill="#353535"/>
<path d="M108.947 116.914C107.585 117.032 106.216 117.032 104.854 116.914C106.216 116.797 107.585 116.797 108.947 116.914Z" fill="#353535"/>
<path d="M117.147 116.914C115.785 117.032 114.416 117.032 113.054 116.914C114.416 116.797 115.785 116.797 117.147 116.914Z" fill="#353535"/>
<path d="M125.333 116.914C123.971 117.032 122.602 117.032 121.24 116.914C122.602 116.797 123.971 116.797 125.333 116.914Z" fill="#353535"/>
<path d="M133.523 116.914C132.161 117.032 130.792 117.032 129.43 116.914C130.792 116.797 132.161 116.797 133.523 116.914Z" fill="#353535"/>
<path d="M139.652 116.914C138.979 117.032 138.29 117.032 137.616 116.914C138.29 116.797 138.979 116.797 139.652 116.914Z" fill="#353535"/>
<g opacity="0.3">
<path d="M77.7224 91.0391C77.7224 91.0391 77.7427 94.433 76.7042 96.4694C75.6656 98.5058 75.3466 99.3136 73.1744 100.101C71.0023 100.888 43.6739 103.892 43.6739 103.892V94.6706L77.7224 91.0391Z" fill="#0C0C0C"/>
</g>
<g opacity="0.3">
<path d="M77.2438 78.2436C77.2438 78.2436 77.556 74.7783 68.864 73.492C58.923 72.0224 43.701 70.2168 43.701 70.2168V76.7706L77.2438 78.2436Z" fill="#0C0C0C"/>
</g>
<path d="M72.8791 75.1016H44.6038C41.9215 75.1016 39.747 77.276 39.747 79.9584V92.6179C39.747 95.3003 41.9215 97.4747 44.6038 97.4747H72.8791C75.5615 97.4747 77.7359 95.3003 77.7359 92.6179V79.9584C77.7359 77.276 75.5615 75.1016 72.8791 75.1016Z" fill="#EDEDED"/>
<path d="M44.6038 97.4714C44.6038 97.4714 44.5054 97.4714 44.3153 97.4714C44.0306 97.4604 43.7475 97.4218 43.4702 97.356C43.0166 97.2537 42.5808 97.0844 42.1771 96.8537C41.6242 96.5414 41.1385 96.1227 40.7483 95.6217C40.2538 94.9935 39.9216 94.2534 39.781 93.4665C39.7102 93.0176 39.683 92.563 39.6995 92.1089C39.6995 91.6405 39.6995 91.1518 39.6995 90.6461C39.6995 88.6267 39.6995 86.3289 39.6995 83.7868C39.6995 82.5141 39.6995 81.187 39.6995 79.7955C39.7223 79.0619 39.9091 78.3428 40.2463 77.6909C40.5834 77.039 41.0622 76.4708 41.6477 76.0282C42.263 75.5551 42.9839 75.2383 43.7485 75.105C44.1365 75.0407 44.5297 75.0134 44.9229 75.0236H51.032H72.9029C73.6396 75.022 74.3674 75.1859 75.0323 75.5031C75.6973 75.8203 76.2825 76.2827 76.7449 76.8563C77.3572 77.6069 77.7328 78.5224 77.8242 79.4867C77.8615 79.9652 77.8479 80.4302 77.8513 80.8952C77.8513 81.8251 77.8513 82.7472 77.8513 83.6613V89.0475C77.8513 89.9266 77.8513 90.7988 77.8513 91.6575C77.8513 92.0919 77.8683 92.5128 77.8513 92.9472C77.8389 93.1625 77.8129 93.3767 77.7733 93.5887C77.7271 93.7973 77.6704 94.0035 77.6036 94.2064C77.3272 95.001 76.8527 95.7119 76.225 96.272C75.5972 96.832 74.837 97.2226 74.0161 97.4069C73.8201 97.4521 73.6218 97.4872 73.4222 97.5121C73.2219 97.5291 73.0217 97.5359 72.8214 97.5427H69.3765H61.0613L49.0194 97.5121L45.7442 97.4952H44.8957H44.6038C44.6038 97.4952 44.7022 97.4952 44.8957 97.4952H45.7442L49.0194 97.4782L61.0613 97.451H69.3765H71.6539C72.4277 97.4307 73.2185 97.5155 73.9788 97.3153C74.7658 97.1273 75.4924 96.7429 76.0907 96.1981C76.6889 95.6532 77.1394 94.9657 77.3999 94.1996C77.6918 93.4156 77.6511 92.5637 77.6511 91.7016V89.0916C77.6511 87.3336 77.6511 85.5347 77.6511 83.7054V80.9393C77.6511 80.4743 77.6511 80.0025 77.6273 79.5478C77.5359 78.6178 77.1736 77.7351 76.5854 77.009C76.2893 76.6498 75.9469 76.3314 75.5672 76.0621C75.1727 75.8023 74.7445 75.5979 74.2944 75.4546C73.8388 75.3219 73.3673 75.2511 72.8927 75.2442H51.0219H44.9127C44.5276 75.2341 44.1423 75.2602 43.7621 75.3222C43.0217 75.4505 42.3231 75.7555 41.7257 76.2115C41.1563 76.6404 40.6901 77.1913 40.3613 77.8238C40.0324 78.4563 39.8492 79.1543 39.8251 79.8668C39.8081 81.2481 39.8251 82.582 39.8251 83.8547C39.8251 86.3968 39.8251 88.6945 39.8251 90.714C39.8251 91.2197 39.8251 91.7084 39.8251 92.1768C39.808 92.625 39.833 93.0739 39.8998 93.5174C40.0626 94.4426 40.4905 95.3007 41.1316 95.9875C41.7726 96.6743 42.5991 97.1603 43.511 97.3866C43.7858 97.4552 44.0665 97.4984 44.3493 97.5155L44.6038 97.4714Z" fill="#353535"/>
<path d="M66.2914 95.262C70.7826 95.262 74.4234 91.6212 74.4234 87.13C74.4234 82.6389 70.7826 78.998 66.2914 78.998C61.8003 78.998 58.1594 82.6389 58.1594 87.13C58.1594 91.6212 61.8003 95.262 66.2914 95.262Z" fill="#717171"/>
<path d="M68.3753 93.7712C69.0632 93.516 69.7156 93.1738 70.3167 92.753C70.9561 92.284 71.5115 91.7103 71.9594 91.056C72.517 90.2621 72.886 89.3514 73.0384 88.3932C73.1907 87.4351 73.1223 86.4548 72.8384 85.5272C72.6166 84.7657 72.2653 84.0481 71.7998 83.4059C71.3612 82.8189 70.8478 82.2918 70.2725 81.8379C70.2725 81.8379 70.3235 81.8583 70.4049 81.9126C70.5305 81.9907 70.6517 82.0757 70.7681 82.1671C71.1954 82.5037 71.5766 82.8951 71.9017 83.3312C72.3895 83.9775 72.7595 84.7048 72.9945 85.4796C73.2964 86.4294 73.3719 87.4365 73.2152 88.4207C73.0584 89.4048 72.6737 90.3386 72.0917 91.1476C71.63 91.8084 71.0555 92.3828 70.3947 92.8446C69.9511 93.1584 69.467 93.4108 68.9557 93.5947C68.8182 93.6474 68.6777 93.6916 68.5348 93.727C68.485 93.752 68.4308 93.767 68.3753 93.7712Z" fill="#FAFAFA"/>
<path d="M193.6 35.0056C193.875 37.9671 193.265 40.9436 191.847 43.5582C190.429 46.1728 188.268 48.3078 185.635 49.6927C183.003 51.0776 180.019 51.6502 177.061 51.3379C174.104 51.0257 171.305 49.8426 169.02 47.9385C166.735 46.0344 165.067 43.495 164.226 40.642C163.386 37.789 163.411 34.7507 164.299 31.912C165.186 29.0732 166.896 26.5618 169.212 24.6957C171.528 22.8297 174.346 21.693 177.309 21.4296C181.269 21.0731 185.208 22.3025 188.262 24.8478C191.317 27.3931 193.236 31.0463 193.6 35.0056Z" fill="#EDEDED"/>
<g opacity="0.3">
<path d="M190.002 34.9585C189.934 34.9585 189.843 34.4732 189.581 33.6009C189.215 32.3981 188.666 31.259 187.952 30.2239C187.46 29.5173 186.891 28.8674 186.255 28.2859C185.529 27.6185 184.719 27.0481 183.846 26.5889C183.376 26.3412 182.888 26.1291 182.386 25.9543C181.865 25.7709 181.33 25.6268 180.788 25.5232C180.228 25.4157 179.66 25.3511 179.091 25.3298C178.501 25.3097 177.911 25.3335 177.326 25.401C176.742 25.4736 176.163 25.587 175.595 25.7404C175.044 25.8987 174.506 26.0984 173.986 26.3378C173 26.7907 172.085 27.3853 171.271 28.1027C170.531 28.7526 169.879 29.4953 169.329 30.3121C168.853 31.0288 168.457 31.796 168.148 32.5997C167.701 33.7738 167.44 35.0105 167.375 36.2652C167.324 37.1612 167.354 37.6635 167.283 37.6737C167.212 37.6839 167.089 37.1884 167.032 36.2652C166.967 34.9527 167.147 33.6396 167.561 32.3927C168.178 30.5171 169.27 28.8333 170.731 27.5053C171.593 26.7162 172.567 26.0607 173.623 25.5606C174.182 25.2965 174.76 25.0774 175.354 24.9055C175.965 24.7306 176.589 24.6024 177.221 24.522C177.852 24.45 178.489 24.4251 179.125 24.4473C179.743 24.4749 180.358 24.5498 180.964 24.6713C182.108 24.9045 183.211 25.3072 184.236 25.866C185.971 26.8091 187.433 28.1838 188.482 29.8573C189.183 30.9691 189.671 32.2018 189.921 33.4923C190.063 34.4494 190.063 34.9585 190.002 34.9585Z" fill="#0C0C0C"/>
</g>
<g opacity="0.3">
<path d="M180.533 43.0292L180.74 45.0113L178.968 45.198L178.768 43.2668C177.003 43.3415 175.266 42.9681 174.213 42.3097L174.96 40.0459C176.05 40.6496 177.278 40.9595 178.524 40.9453L178.215 37.9891C176.202 37.7142 173.939 37.29 173.674 34.7547C173.477 32.8778 174.675 31.1265 177.438 30.5156L177.234 28.5505L179.006 28.3672L179.206 30.295C180.48 30.2352 181.75 30.4771 182.912 31.0009L182.257 33.2613C181.374 32.8651 180.421 32.6482 179.454 32.6232L179.766 35.6337C181.779 35.8883 184.009 36.3125 184.266 38.8173C184.46 40.6704 183.275 42.4047 180.533 43.0292ZM177.95 35.386L177.686 32.871C176.773 33.1799 176.454 33.7331 176.515 34.3168C176.576 34.9006 177.142 35.2196 177.95 35.386ZM181.439 39.3366C181.375 38.7155 180.825 38.4338 180.038 38.2471L180.292 40.6908C181.158 40.4057 181.497 39.9033 181.439 39.3366Z" fill="#0C0C0C"/>
</g>
<path d="M167.235 37.3919C167.247 37.4214 167.255 37.4522 167.259 37.4835C167.259 37.5548 167.286 37.643 167.307 37.7517C167.327 37.8603 167.347 38.0198 167.375 38.1861C167.402 38.3852 167.442 38.5824 167.493 38.7766C167.981 40.8921 169.054 42.8279 170.589 44.3631L171.125 44.8519C171.217 44.9299 171.301 45.0182 171.4 45.0962L171.702 45.3203C171.905 45.4696 172.106 45.6359 172.323 45.775L173.002 46.1857C173.974 46.7347 175.019 47.1405 176.107 47.3906C178.462 47.9291 180.927 47.702 183.143 46.7423C184.167 46.2981 185.122 45.7083 185.977 44.991L186.568 44.465C186.758 44.2885 186.907 44.0882 187.094 43.905C187.178 43.8133 187.267 43.7217 187.348 43.63C187.43 43.5384 187.501 43.4332 187.579 43.3382C187.725 43.1413 187.871 42.9513 188.017 42.7612C188.511 42.0325 188.925 41.2518 189.249 40.4329C189.718 39.241 189.985 37.9793 190.04 36.6995C190.053 36.4995 190.053 36.2988 190.04 36.0988C190.04 35.9291 190.04 35.7798 190.04 35.6576C190.04 35.5354 190.04 35.4573 190.04 35.386C190.037 35.3544 190.037 35.3226 190.04 35.291C190.043 35.3215 190.043 35.3522 190.04 35.3827C190.04 35.4539 190.04 35.5456 190.06 35.6542C190.08 35.7628 190.06 35.9257 190.084 36.0988C190.099 36.2999 190.099 36.5018 190.084 36.7029C190.056 37.9933 189.804 39.2691 189.34 40.4736C189.024 41.3102 188.611 42.1074 188.112 42.8494L187.688 43.4434C187.609 43.5418 187.538 43.647 187.457 43.742L187.199 44.0238C187.026 44.2104 186.859 44.4107 186.666 44.5905L186.072 45.1302C185.206 45.8608 184.239 46.4621 183.201 46.9154C180.956 47.8908 178.458 48.1216 176.073 47.5739C174.969 47.3178 173.908 46.9016 172.924 46.3384L172.245 45.921C172.024 45.7784 171.824 45.6087 171.617 45.4594L171.315 45.2286C171.217 45.1506 171.128 45.0589 171.033 44.9775L170.483 44.4616C169.86 43.8238 169.31 43.1179 168.844 42.3573C168.169 41.2567 167.689 40.0476 167.425 38.7834C167.377 38.5882 167.343 38.3897 167.324 38.1895C167.303 38.0198 167.286 37.8704 167.269 37.7483C167.252 37.6261 167.249 37.548 167.239 37.4767C167.235 37.4486 167.234 37.4202 167.235 37.3919Z" fill="#353535"/>
<path d="M172.415 79.3011C171.668 80.8588 170.475 82.1598 168.988 83.0394C167.501 83.919 165.787 84.3376 164.062 84.2422C162.337 84.1469 160.679 83.5418 159.298 82.5037C157.917 81.4655 156.875 80.041 156.305 78.4104C155.734 76.7798 155.66 75.0165 156.092 73.3438C156.524 71.671 157.442 70.1641 158.731 69.0137C160.02 67.8633 161.621 67.1212 163.332 66.8814C165.043 66.6416 166.786 66.9148 168.342 67.6665C169.373 68.1629 170.297 68.8577 171.06 69.7111C171.823 70.5645 172.41 71.5598 172.788 72.6402C173.166 73.7206 173.328 74.8649 173.264 76.0078C173.2 77.1507 172.911 78.2697 172.415 79.3011Z" fill="#EDEDED"/>
<g opacity="0.3">
<path d="M170.646 78.2103C170.681 77.9385 170.745 77.6711 170.836 77.4127C171.012 76.704 171.077 75.9725 171.03 75.244C170.993 74.7448 170.903 74.251 170.762 73.771C170.595 73.2239 170.359 72.7004 170.059 72.2131C169.897 71.9506 169.717 71.7 169.519 71.463C168.875 70.6932 168.062 70.0823 167.144 69.6778C166.83 69.5406 166.507 69.4272 166.176 69.3384C165.854 69.2539 165.527 69.1938 165.196 69.1585C164.877 69.122 164.556 69.1107 164.235 69.1246C163.926 69.1367 163.619 69.1719 163.315 69.2298C162.753 69.332 162.206 69.5078 161.69 69.7525C161.238 69.9684 160.812 70.2324 160.417 70.5399C159.845 70.9946 159.347 71.535 158.94 72.1418C158.808 72.383 158.653 72.6104 158.475 72.8206C158.517 72.5433 158.617 72.2781 158.771 72.0434C159.129 71.3628 159.613 70.7559 160.196 70.2548C160.597 69.9065 161.038 69.6079 161.51 69.3656C162.053 69.0868 162.632 68.8825 163.23 68.758C163.9 68.6195 164.586 68.5829 165.267 68.6494C165.624 68.685 165.978 68.7486 166.326 68.8395C166.683 68.9357 167.032 69.0583 167.371 69.206C167.709 69.3574 168.034 69.5344 168.345 69.7355C168.645 69.9323 168.929 70.1525 169.194 70.3939C169.452 70.6259 169.69 70.8791 169.906 71.1508C170.115 71.4072 170.304 71.6796 170.47 71.9654C170.782 72.4963 171.021 73.0672 171.179 73.6624C171.314 74.1745 171.388 74.7008 171.4 75.2304C171.419 75.9942 171.296 76.755 171.037 77.4738C170.959 77.7436 170.826 77.9943 170.646 78.2103Z" fill="#0C0C0C"/>
</g>
<g opacity="0.3">
<path d="M163.519 79.4201L163.034 80.4688L162.094 80.0344L162.569 79.0162C161.747 78.6018 161.058 77.9657 160.58 77.18L161.629 76.2738C161.993 76.9006 162.513 77.4222 163.139 77.7876L163.869 76.2195C162.942 75.483 161.941 74.5938 162.565 73.2532C163.027 72.2588 164.144 71.7395 165.705 72.2588L166.19 71.2168L167.127 71.6546L166.652 72.6728C167.306 73.0215 167.868 73.5206 168.291 74.1288L167.273 75.0656C166.95 74.6049 166.54 74.2127 166.065 73.9116L165.325 75.5068C166.251 76.2331 167.235 77.1122 166.621 78.4358C166.183 79.4201 165.077 79.919 163.519 79.4201ZM164.507 74.8348L165.128 73.5044C164.578 73.3856 164.252 73.5654 164.11 73.8743C163.967 74.1831 164.157 74.5056 164.507 74.828V74.8348ZM165.073 77.8487C165.223 77.5093 165.036 77.214 164.697 76.8848L164.096 78.1813C164.608 78.2899 164.948 78.1405 165.073 77.8419V77.8487Z" fill="#0C0C0C"/>
</g>
<path d="M158.564 72.6309C158.564 72.6309 158.462 72.9058 158.296 73.4047C158.071 74.1109 157.965 74.8496 157.983 75.5904C157.997 76.0999 158.066 76.6064 158.19 77.1007C158.338 77.6718 158.556 78.2224 158.839 78.74C159.16 79.2997 159.56 79.8105 160.027 80.2572C161.034 81.2238 162.324 81.8423 163.709 82.022C164.348 82.1051 164.997 82.0959 165.633 81.9949C166.718 81.8212 167.743 81.379 168.613 80.7085C169.201 80.2572 169.712 79.7127 170.124 79.0964C170.405 78.6552 170.538 78.3905 170.555 78.4006C170.534 78.4684 170.506 78.5333 170.47 78.5941C170.384 78.7781 170.287 78.9571 170.181 79.1303C169.786 79.7715 169.282 80.3388 168.691 80.807C167.815 81.5129 166.771 81.9805 165.661 82.1646C165.008 82.2743 164.342 82.2868 163.685 82.2019C162.98 82.1035 162.294 81.901 161.649 81.6012C161.012 81.2874 160.425 80.8802 159.908 80.3929C159.431 79.9338 159.024 79.4079 158.699 78.8317C158.404 78.3083 158.176 77.7494 158.021 77.1686C157.901 76.6625 157.838 76.1445 157.834 75.6244C157.826 74.8718 157.951 74.1237 158.204 73.4149C158.27 73.223 158.35 73.0359 158.442 72.8549C158.473 72.7756 158.514 72.7003 158.564 72.6309Z" fill="#353535"/>
<path d="M28.3194 78.0612C28.7329 80.852 28.309 83.7027 27.1013 86.2525C25.8937 88.8022 23.9565 90.9362 21.5353 92.3843C19.114 93.8323 16.3175 94.5294 13.4998 94.3871C10.6822 94.2449 7.97008 93.2697 5.70698 91.5851C3.44388 89.9005 1.73156 87.5822 0.786831 84.9239C-0.157897 82.2655 -0.292541 79.3866 0.39995 76.6516C1.09244 73.9167 2.58092 71.4487 4.67691 69.5602C6.77291 67.6718 9.38214 66.4477 12.1742 66.0431C14.0235 65.772 15.908 65.8678 17.7202 66.325C19.5325 66.7823 21.2369 67.592 22.7361 68.708C24.2354 69.824 25.5001 71.2245 26.4581 72.8293C27.4161 74.4341 28.0486 76.2119 28.3194 78.0612Z" fill="#EDEDED"/>
<g opacity="0.3">
<path d="M24.9119 78.2045C24.8474 78.2045 24.732 77.7531 24.4401 76.9555C24.0338 75.8337 23.4543 74.7824 22.7228 73.8399C22.2218 73.1988 21.6528 72.6138 21.0258 72.0954C20.3007 71.5057 19.5021 71.0129 18.65 70.6291C18.1922 70.4191 17.7191 70.2443 17.2347 70.1065C16.7318 69.9536 16.2177 69.8401 15.6972 69.7671C15.1596 69.6941 14.6173 69.6624 14.0749 69.672C13.5162 69.6863 12.9593 69.7407 12.4084 69.835C11.858 69.9351 11.3158 70.0758 10.7861 70.2558C10.2732 70.4352 9.77406 70.6518 9.29276 70.9041C8.82825 71.1486 8.38343 71.4289 7.96231 71.7424C7.55573 72.04 7.17121 72.3667 6.81175 72.7198C5.56189 73.9483 4.62999 75.4627 4.09656 77.132C3.73435 78.2688 3.55226 79.4552 3.55692 80.6482C3.55692 81.4967 3.60783 81.9719 3.55692 81.982C3.50601 81.9922 3.34649 81.534 3.24807 80.6652C3.1142 79.4253 3.21553 78.1714 3.54674 76.9691C3.77144 76.1327 4.09502 75.326 4.51063 74.5662C4.99417 73.6929 5.59228 72.8882 6.28908 72.1734C6.6661 71.7854 7.07231 71.4268 7.50413 71.1009C7.95349 70.7578 8.42896 70.4502 8.92621 70.1811C9.44161 69.9024 9.97843 69.6652 10.5316 69.4718C11.6725 69.0687 12.8718 68.8555 14.0817 68.8405C14.6675 68.8342 15.253 68.8728 15.833 68.9559C16.3931 69.0354 16.9459 69.1603 17.4858 69.3292C18.0031 69.4875 18.5079 69.6838 18.9962 69.9164C20.6876 70.7196 22.144 71.9445 23.2251 73.4733C23.9462 74.4915 24.4732 75.634 24.7795 76.8435C24.956 77.7226 24.9594 78.1977 24.9119 78.2045Z" fill="#0C0C0C"/>
</g>
<g opacity="0.3">
<path d="M16.3658 86.3366L16.6645 88.2033L14.998 88.4714L14.7062 86.6522C13.0397 86.8151 11.3733 86.5538 10.3415 85.9734L10.932 83.7911C11.9948 84.312 13.1754 84.546 14.3566 84.4699L13.912 81.6868C11.9876 81.5341 9.8222 81.2456 9.43868 78.863C9.15698 77.0947 10.1989 75.3706 12.7852 74.6511L12.4865 72.7979L14.1563 72.5332L14.4448 74.349C15.6491 74.226 16.8654 74.3888 17.9949 74.8241L17.4892 77.0099C16.6314 76.6798 15.7165 76.5241 14.7978 76.5517L15.2526 79.3857C17.1736 79.5214 19.305 79.8133 19.6817 82.1653C19.9601 83.8963 18.9317 85.6001 16.3658 86.3366ZM13.5183 79.2329L13.1381 76.8572C12.2862 77.1965 12.0147 77.7396 12.103 78.2894C12.1912 78.8392 12.7478 79.1175 13.5183 79.2329ZM17.031 82.7932C16.936 82.2095 16.4032 81.9685 15.6463 81.8327L16.0128 84.1339C16.8172 83.8318 17.1159 83.3261 17.031 82.7932Z" fill="#0C0C0C"/>
</g>
<path d="M3.47877 81.6937C3.48896 81.7213 3.49691 81.7497 3.50253 81.7786C3.5195 81.8431 3.53986 81.9279 3.56362 82.0297L3.65187 82.437C3.6883 82.6241 3.7359 82.8088 3.79441 82.9902C4.13161 84.1556 4.66038 85.2567 5.35904 86.2485C5.84093 86.9306 6.39761 87.5568 7.0187 88.1152L7.55156 88.5496C7.64319 88.6209 7.73144 88.6989 7.82647 88.7668L8.12514 88.9637C8.32539 89.0926 8.52224 89.2386 8.73606 89.3608L9.39449 89.7002C10.3437 90.1691 11.3552 90.4994 12.3982 90.681C13.5216 90.8588 14.6651 90.8714 15.7922 90.7184C16.9149 90.5369 18.0055 90.1939 19.03 89.7002C19.9748 89.2246 20.8468 88.6166 21.6196 87.8946L22.1491 87.3617C22.3222 87.1852 22.4647 86.9884 22.6209 86.8085L22.8483 86.5336C22.9229 86.4385 22.984 86.3401 23.0485 86.2451C23.1809 86.0516 23.3064 85.8616 23.4354 85.6749C23.8648 84.9592 24.2153 84.199 24.4808 83.4077C24.8626 82.2555 25.0496 81.0476 25.034 79.8338C25.0406 79.6434 25.0327 79.4528 25.0102 79.2636C25.0102 79.1041 24.9865 78.965 24.9797 78.8462C24.9729 78.7274 24.9797 78.6595 24.9627 78.5882C24.9582 78.559 24.9582 78.5292 24.9627 78.5C24.9731 78.5283 24.9788 78.5581 24.9797 78.5882C24.9797 78.6561 25 78.741 25.0136 78.8428C25.0272 78.9446 25.0442 79.1007 25.0645 79.2603C25.0905 79.4503 25.1029 79.642 25.1019 79.8338C25.1459 81.0576 24.9759 82.2797 24.5996 83.445C24.3413 84.2515 23.9917 85.0258 23.5576 85.753L23.1741 86.3299C23.1062 86.4284 23.0451 86.5302 22.9704 86.6252L22.743 86.9035C22.5869 87.0902 22.441 87.2904 22.2679 87.4703C22.0948 87.6502 21.9285 87.8301 21.7316 88.01C20.9498 88.7491 20.065 89.371 19.1047 89.8563C17.0257 90.9 14.6664 91.2486 12.3744 90.8507C11.3124 90.6606 10.2835 90.3177 9.31982 89.8325L8.64103 89.4694C8.42381 89.3472 8.22696 89.1979 8.02332 89.0655L7.72126 88.8652C7.62622 88.794 7.53798 88.7125 7.44295 88.6412L6.9067 88.2C6.28242 87.6287 5.72455 86.9889 5.24364 86.2926C4.54689 85.285 4.03014 84.1642 3.71635 82.9801C3.65812 82.7972 3.61499 82.6099 3.58738 82.4201C3.56023 82.2605 3.53647 82.1248 3.51271 82.006L3.47198 81.7514C3.47259 81.732 3.47486 81.7127 3.47877 81.6937Z" fill="#353535"/>
<path d="M207.532 122.93C207.532 122.981 156.857 123.022 94.3597 123.022C31.8628 123.022 -18.8264 122.981 -18.8264 122.93C-18.8264 122.879 31.839 122.842 94.3597 122.842C156.88 122.842 207.532 122.883 207.532 122.93Z" fill="#353535"/>
</g>
<defs>
<clipPath id="clip0_2600_26981">
<rect width="193.395" height="124" fill="white"/>
</clipPath>
</defs>
</svg>
